<svg xmlns="http://www.w3.org/2000/svg" viewBox="0 0 512 512" width="512" height="512" role="img" aria-label="TiendaMax">
  <defs>
    <linearGradient id="bg" x1="0%" y1="0%" x2="100%" y2="100%">
      <stop offset="0%" style="stop-color:#ff8533"/>
      <stop offset="100%" style="stop-color:#e85d1a"/>
    </linearGradient>
  </defs>
  <rect width="512" height="512" rx="110" ry="110" fill="url(#bg)"/>
  <g transform="translate(256,256)" fill="#fff">
    <path d="M-70,-90 Q-90,-130 -90,-150 Q-90,-200 -40,-200 Q10,-200 10,-150 L10,-120 L-20,-120 L-20,-150 Q-20,-170 -40,-170 Q-60,-170 -60,-150 Q-60,-130 -42,-90 Z"/>
    <path d="M70,-90 Q90,-130 90,-150 Q90,-200 40,-200 Q-10,-200 -10,-150 L-10,-120 L20,-120 L20,-150 Q20,-170 40,-170 Q60,-170 60,-150 Q60,-130 42,-90 Z"/>
    <path d="M-105,-90 L-115,140 Q-115,170 -85,170 L85,170 Q115,170 115,140 L105,-90 Z"/>
    <text x="0" y="95" text-anchor="middle" font-family="Arial Black,Impact,sans-serif" font-size="145" font-weight="900" fill="#FF6B35" letter-spacing="-5">M</text>
  </g>
</svg>
